<mxfile host="app.diagrams.net" agent="Mozilla/5.0 (Macintosh; Intel Mac OS X 10_15_7) AppleWebKit/537.36 (KHTML, like Gecko) Chrome/138.0.0.0 Safari/537.36" version="28.0.6" pages="4">
  <diagram name="Page-1" id="4Ul66hQW8FFXG4-TaXMw">
    <mxGraphModel dx="655" dy="453" grid="1" gridSize="10" guides="1" tooltips="1" connect="1" arrows="1" fold="1" page="1" pageScale="1" pageWidth="827" pageHeight="1169" math="0" shadow="0">
      <root>
        <mxCell id="0" />
        <mxCell id="1" parent="0" />
        <mxCell id="AGN74QsaJGgjYI1OmPoy-4" value="" style="edgeStyle=orthogonalEdgeStyle;rounded=0;orthogonalLoop=1;jettySize=auto;html=1;" edge="1" parent="1" source="AGN74QsaJGgjYI1OmPoy-1" target="AGN74QsaJGgjYI1OmPoy-3">
          <mxGeometry relative="1" as="geometry" />
        </mxCell>
        <mxCell id="AGN74QsaJGgjYI1OmPoy-1" value="Object : java.lang" style="rounded=0;whiteSpace=wrap;html=1;" vertex="1" parent="1">
          <mxGeometry x="354" y="140" width="120" height="60" as="geometry" />
        </mxCell>
        <mxCell id="AGN74QsaJGgjYI1OmPoy-2" value="Class Hierarchy&amp;nbsp;" style="text;strokeColor=none;fillColor=none;html=1;fontSize=24;fontStyle=1;verticalAlign=middle;align=center;" vertex="1" parent="1">
          <mxGeometry x="364" y="50" width="100" height="40" as="geometry" />
        </mxCell>
        <mxCell id="AGN74QsaJGgjYI1OmPoy-6" value="" style="edgeStyle=orthogonalEdgeStyle;rounded=0;orthogonalLoop=1;jettySize=auto;html=1;" edge="1" parent="1" source="AGN74QsaJGgjYI1OmPoy-3" target="AGN74QsaJGgjYI1OmPoy-5">
          <mxGeometry relative="1" as="geometry" />
        </mxCell>
        <mxCell id="AGN74QsaJGgjYI1OmPoy-3" value="Person" style="rounded=0;whiteSpace=wrap;html=1;" vertex="1" parent="1">
          <mxGeometry x="354" y="240" width="120" height="60" as="geometry" />
        </mxCell>
        <mxCell id="AGN74QsaJGgjYI1OmPoy-5" value="Student" style="rounded=0;whiteSpace=wrap;html=1;" vertex="1" parent="1">
          <mxGeometry x="354" y="340" width="120" height="60" as="geometry" />
        </mxCell>
        <mxCell id="AGN74QsaJGgjYI1OmPoy-7" value="student instance" style="text;html=1;align=center;verticalAlign=middle;resizable=0;points=[];autosize=1;strokeColor=none;fillColor=none;" vertex="1" parent="1">
          <mxGeometry x="364" y="410" width="110" height="30" as="geometry" />
        </mxCell>
      </root>
    </mxGraphModel>
  </diagram>
  <diagram id="TRFR2PL5oGdGdo9Pmr7y" name="Page-2">
    <mxGraphModel dx="582" dy="403" grid="1" gridSize="10" guides="1" tooltips="1" connect="1" arrows="1" fold="1" page="1" pageScale="1" pageWidth="827" pageHeight="1169" math="0" shadow="0">
      <root>
        <mxCell id="0" />
        <mxCell id="1" parent="0" />
        <mxCell id="h0TTu0veYDYSrjm4VQd_-4" style="edgeStyle=orthogonalEdgeStyle;rounded=0;orthogonalLoop=1;jettySize=auto;html=1;exitX=0.5;exitY=1;exitDx=0;exitDy=0;entryX=0.5;entryY=0;entryDx=0;entryDy=0;" edge="1" parent="1" source="h0TTu0veYDYSrjm4VQd_-1" target="h0TTu0veYDYSrjm4VQd_-2">
          <mxGeometry relative="1" as="geometry" />
        </mxCell>
        <mxCell id="h0TTu0veYDYSrjm4VQd_-5" style="edgeStyle=orthogonalEdgeStyle;rounded=0;orthogonalLoop=1;jettySize=auto;html=1;exitX=0.5;exitY=1;exitDx=0;exitDy=0;" edge="1" parent="1" source="h0TTu0veYDYSrjm4VQd_-1" target="h0TTu0veYDYSrjm4VQd_-3">
          <mxGeometry relative="1" as="geometry" />
        </mxCell>
        <mxCell id="h0TTu0veYDYSrjm4VQd_-1" value="AbstractRecipe&lt;div&gt;execute()&lt;/div&gt;" style="rounded=0;whiteSpace=wrap;html=1;" vertex="1" parent="1">
          <mxGeometry x="354" y="160" width="120" height="60" as="geometry" />
        </mxCell>
        <mxCell id="h0TTu0veYDYSrjm4VQd_-2" value="Tea" style="rounded=0;whiteSpace=wrap;html=1;" vertex="1" parent="1">
          <mxGeometry x="260" y="290" width="120" height="60" as="geometry" />
        </mxCell>
        <mxCell id="h0TTu0veYDYSrjm4VQd_-3" value="Coffee" style="rounded=0;whiteSpace=wrap;html=1;" vertex="1" parent="1">
          <mxGeometry x="450" y="290" width="120" height="60" as="geometry" />
        </mxCell>
        <mxCell id="h0TTu0veYDYSrjm4VQd_-6" value="RecipeRunner" style="rounded=0;whiteSpace=wrap;html=1;" vertex="1" parent="1">
          <mxGeometry x="360" y="400" width="120" height="60" as="geometry" />
        </mxCell>
      </root>
    </mxGraphModel>
  </diagram>
  <diagram id="ImYE1S5v9gLEXsVcFBOl" name="Page-3">
    <mxGraphModel dx="655" dy="453" grid="1" gridSize="10" guides="1" tooltips="1" connect="1" arrows="1" fold="1" page="1" pageScale="1" pageWidth="827" pageHeight="1169" math="0" shadow="0">
      <root>
        <mxCell id="0" />
        <mxCell id="1" parent="0" />
        <mxCell id="Alh4wR8hsnhRBaXmwx7s-4" value="" style="edgeStyle=orthogonalEdgeStyle;rounded=0;orthogonalLoop=1;jettySize=auto;html=1;" edge="1" parent="1" source="Alh4wR8hsnhRBaXmwx7s-2" target="Alh4wR8hsnhRBaXmwx7s-3">
          <mxGeometry relative="1" as="geometry" />
        </mxCell>
        <mxCell id="Alh4wR8hsnhRBaXmwx7s-2" value="GameRunner" style="rounded=0;whiteSpace=wrap;html=1;" vertex="1" parent="1">
          <mxGeometry x="340" y="100" width="120" height="60" as="geometry" />
        </mxCell>
        <mxCell id="Alh4wR8hsnhRBaXmwx7s-6" value="" style="edgeStyle=orthogonalEdgeStyle;rounded=0;orthogonalLoop=1;jettySize=auto;html=1;" edge="1" parent="1" source="Alh4wR8hsnhRBaXmwx7s-3" target="Alh4wR8hsnhRBaXmwx7s-5">
          <mxGeometry relative="1" as="geometry" />
        </mxCell>
        <mxCell id="Alh4wR8hsnhRBaXmwx7s-8" style="edgeStyle=orthogonalEdgeStyle;rounded=0;orthogonalLoop=1;jettySize=auto;html=1;exitX=0.5;exitY=1;exitDx=0;exitDy=0;" edge="1" parent="1" source="Alh4wR8hsnhRBaXmwx7s-3" target="Alh4wR8hsnhRBaXmwx7s-7">
          <mxGeometry relative="1" as="geometry" />
        </mxCell>
        <mxCell id="Alh4wR8hsnhRBaXmwx7s-3" value="GameConsole&lt;div&gt;Class (new Game)&lt;/div&gt;" style="rounded=0;whiteSpace=wrap;html=1;" vertex="1" parent="1">
          <mxGeometry x="340" y="240" width="120" height="60" as="geometry" />
        </mxCell>
        <mxCell id="Alh4wR8hsnhRBaXmwx7s-5" value="MarioGame" style="rounded=0;whiteSpace=wrap;html=1;" vertex="1" parent="1">
          <mxGeometry x="230" y="380" width="120" height="60" as="geometry" />
        </mxCell>
        <mxCell id="Alh4wR8hsnhRBaXmwx7s-7" value="SuperContraGame" style="rounded=0;whiteSpace=wrap;html=1;" vertex="1" parent="1">
          <mxGeometry x="420" y="380" width="120" height="60" as="geometry" />
        </mxCell>
      </root>
    </mxGraphModel>
  </diagram>
  <diagram id="vTeLBH7ZMpWVNnckqRD4" name="Page-4">
    <mxGraphModel dx="605" dy="489" grid="1" gridSize="10" guides="1" tooltips="1" connect="1" arrows="1" fold="1" page="1" pageScale="1" pageWidth="827" pageHeight="1169" math="0" shadow="0">
      <root>
        <mxCell id="0" />
        <mxCell id="1" parent="0" />
      </root>
    </mxGraphModel>
  </diagram>
</mxfile>
